<?xml version="1.0"?>
<svg version="1.1" xmlns="http://www.w3.org/2000/svg" width="320" height="200" style="border: dashed 2px #aaa"><path fill="#78f0ca" d="M76.2,151.5c0,1.8-0.7,2.5-2.4,2.5l-7.9,0c-1.8,0-2.6-0.7-2.6-2.5l0-27.9l-28.4,0l0,27.9c0,1.8-0.8,2.5-2.5,2.5l-7.8,0c-1.8,0-2.7-0.7-2.7-2.5l0-64.3c0-1.7,1.1-2.4,2.7-2.4l7.8,0c1.6,0,2.5,0.6,2.5,2.4l0,26.1l28.4,0l0-26.1c0-1.7,1-2.4,2.6-2.4l7.9,0c1.6,0,2.4,0.6,2.4,2.4l0,64.3z M109.55,92.8c0,3.9-3.4,6.3-6.7,6.3s-6.8-2.2-6.8-6.2s3.3-6.4,6.8-6.4c3.4,0,6.7,2.3,6.7,6.3z M108.95,151.5c0,1.8-0.8,2.5-2.5,2.5l-7,0c-1.8,0-2.6-0.7-2.6-2.5l0-43.7c0-1.7,1-2.3,2.6-2.3l7,0c1.6,0,2.5,0.5,2.5,2.3l0,43.7z M171.2,151.5c0,1.7-1,2.5-2.2,2.5l-6.5,0c-1.6,0-2.3-0.8-2.4-2l-0.2-2.7c-2.8,3.2-8.4,5.9-13.6,5.9c-14.5,0-21.1-11.5-21.1-24.9c0-14,7.8-26.2,21.9-26.2c4.5,0,9.2,1.8,12,4.7l0-22.5c0-1.8,0.5-2.5,2.1-2.7l7.4-1c0.1,0,0.9-0.1,1-0.1c1.2,0,1.6,0.5,1.6,2l0,67z M159.1,140.4l0-21.7c-2-2.7-5.8-4.9-9.6-4.9c-8.1,0-11.7,7.6-11.7,15.8s3,15.8,11.1,15.8c3.7,0,8.2-2.5,10.2-5z M232.15,129.6c0,2.4-0.8,2.9-3.3,2.9l-29.3,0c0.8,7.7,6.4,13,14.3,13c4.2,0,8.6-1,12.3-2.4c0.4-0.1,0.7-0.3,1.1-0.3c0.7,0,1.2,0.4,1.4,1.2l1.4,5.1c0.1,0.5,0.2,0.9,0.2,1.2c0,0.7-0.4,1.2-1.6,1.7c-4.9,2.2-11.6,3.2-16.8,3.2c-15.7,0-25-10-25-25.6c0-15,9.9-25.4,24.8-25.4c6.1,0,11.1,2.3,14.6,6c4.6,4.8,5.9,11.1,5.9,17.9l0,1.5z M220.25,124.6l0-1.1c-0.2-5.2-3.2-10-9.3-10c-6.5,0-10.4,5.2-11.2,11.1l20.5,0z M298.1,87.3l-0.7,5.8c-0.2,1.7-1.3,2.1-3.1,2.1l-18.1,0l0,56.5c0,1.9-0.4,2.3-2.1,2.3l-8.8,0c-1.8,0-2.1-0.4-2.1-2.2l0-56.6l-18.7,0c-1.7,0-2.3-0.7-2.3-2.4l0-5.9c0-1.5,0.7-2.1,2.2-2.1l50.6,0c2.6,0,3.3,0.8,3.1,2.5z"/><path fill="#" d=""/></svg>
